  0
SECTION
  2
HEADER
  9
$ACADVER
  1
AC1009
  9
$EXTMIN
 10
0.0
 20
0.0
 30
0.0
  9
$EXTMAX
 10
1000.0
 20
1000.0
 30
0.0
  9
$FILLMODE
 70
 0
  9
$SPLFRAME
 70
 1
  0
ENDSEC
  0
SECTION
  2
TABLES
  0
TABLE
  2
LAYER
 70
1
  0
LAYER
  2
0
 70
     0
 62
     7
  6
CONTINUOUS
  0
ENDTAB
  0
ENDSEC
  0
SECTION
  2
ENTITIES
  0
LINE
  8
0
 62
     0
 10
344.482
 20
111.383
 30
0.0
 11
344.873
 21
111.368
 31
0.0
  0
LINE
  8
0
 62
     0
 10
344.873
 20
111.368
 30
0.0
 11
345.263
 21
111.321
 31
0.0
  0
LINE
  8
0
 62
     0
 10
345.263
 20
111.321
 30
0.0
 11
345.648
 21
111.245
 31
0.0
  0
LINE
  8
0
 62
     0
 10
345.648
 20
111.245
 30
0.0
 11
346.027
 21
111.139
 31
0.0
  0
LINE
  8
0
 62
     0
 10
346.027
 20
111.139
 30
0.0
 11
346.395
 21
111.002
 31
0.0
  0
LINE
  8
0
 62
     0
 10
346.395
 20
111.002
 30
0.0
 11
346.75
 21
110.839
 31
0.0
  0
LINE
  8
0
 62
     0
 10
346.75
 20
110.839
 30
0.0
 11
347.093
 21
110.647
 31
0.0
  0
LINE
  8
0
 62
     0
 10
347.093
 20
110.647
 30
0.0
 11
347.42
 21
110.428
 31
0.0
  0
LINE
  8
0
 62
     0
 10
347.42
 20
110.428
 30
0.0
 11
347.729
 21
110.185
 31
0.0
  0
LINE
  8
0
 62
     0
 10
347.729
 20
110.185
 30
0.0
 11
348.017
 21
109.918
 31
0.0
  0
LINE
  8
0
 62
     0
 10
348.017
 20
109.918
 30
0.0
 11
348.284
 21
109.63
 31
0.0
  0
LINE
  8
0
 62
     0
 10
348.284
 20
109.63
 30
0.0
 11
348.526
 21
109.321
 31
0.0
  0
LINE
  8
0
 62
     0
 10
348.526
 20
109.321
 30
0.0
 11
348.744
 21
108.996
 31
0.0
  0
LINE
  8
0
 62
     0
 10
348.744
 20
108.996
 30
0.0
 11
348.936
 21
108.653
 31
0.0
  0
LINE
  8
0
 62
     0
 10
348.936
 20
108.653
 30
0.0
 11
349.1
 21
108.296
 31
0.0
  0
LINE
  8
0
 62
     0
 10
349.1
 20
108.296
 30
0.0
 11
349.236
 21
107.928
 31
0.0
  0
LINE
  8
0
 62
     0
 10
349.236
 20
107.928
 30
0.0
 11
349.342
 21
107.55
 31
0.0
  0
LINE
  8
0
 62
     0
 10
349.342
 20
107.55
 30
0.0
 11
349.419
 21
107.166
 31
0.0
  0
LINE
  8
0
 62
     0
 10
349.419
 20
107.166
 30
0.0
 11
349.465
 21
106.776
 31
0.0
  0
LINE
  8
0
 62
     0
 10
349.465
 20
106.776
 30
0.0
 11
349.48
 21
106.382
 31
0.0
  0
LINE
  8
0
 62
     0
 10
349.48
 20
106.382
 30
0.0
 11
349.481
 21
5.12078
 31
0.0
  0
LINE
  8
0
 62
     0
 10
349.481
 20
5.12078
 30
0.0
 11
349.465
 21
4.72944
 31
0.0
  0
LINE
  8
0
 62
     0
 10
349.465
 20
4.72944
 30
0.0
 11
349.419
 21
4.33945
 31
0.0
  0
LINE
  8
0
 62
     0
 10
349.419
 20
4.33945
 30
0.0
 11
349.342
 21
3.95496
 31
0.0
  0
LINE
  8
0
 62
     0
 10
349.342
 20
3.95496
 30
0.0
 11
349.236
 21
3.576
 31
0.0
  0
LINE
  8
0
 62
     0
 10
349.236
 20
3.576
 30
0.0
 11
349.1
 21
3.20807
 31
0.0
  0
LINE
  8
0
 62
     0
 10
349.1
 20
3.20807
 30
0.0
 11
348.936
 21
2.85254
 31
0.0
  0
LINE
  8
0
 62
     0
 10
348.936
 20
2.85254
 30
0.0
 11
348.744
 21
2.50941
 31
0.0
  0
LINE
  8
0
 62
     0
 10
348.744
 20
2.50941
 30
0.0
 11
348.526
 21
2.18281
 31
0.0
  0
LINE
  8
0
 62
     0
 10
348.526
 20
2.18281
 30
0.0
 11
348.284
 21
1.87413
 31
0.0
  0
LINE
  8
0
 62
     0
 10
348.284
 20
1.87413
 30
0.0
 11
348.017
 21
1.58612
 31
0.0
  0
LINE
  8
0
 62
     0
 10
348.017
 20
1.58612
 30
0.0
 11
347.729
 21
1.31878
 31
0.0
  0
LINE
  8
0
 62
     0
 10
347.729
 20
1.31878
 30
0.0
 11
347.42
 21
1.07625
 31
0.0
  0
LINE
  8
0
 62
     0
 10
347.42
 20
1.07625
 30
0.0
 11
347.093
 21
0.858516
 31
0.0
  0
LINE
  8
0
 62
     0
 10
347.093
 20
0.858516
 30
0.0
 11
346.75
 21
0.666972
 31
0.0
  0
LINE
  8
0
 62
     0
 10
346.75
 20
0.666972
 30
0.0
 11
346.395
 21
0.501608
 31
0.0
  0
LINE
  8
0
 62
     0
 10
346.395
 20
0.501608
 30
0.0
 11
346.027
 21
0.366557
 31
0.0
  0
LINE
  8
0
 62
     0
 10
346.027
 20
0.366557
 30
0.0
 11
345.648
 21
0.260449
 31
0.0
  0
LINE
  8
0
 62
     0
 10
345.648
 20
0.260449
 30
0.0
 11
345.263
 21
0.183279
 31
0.0
  0
LINE
  8
0
 62
     0
 10
345.263
 20
0.183279
 30
0.0
 11
344.873
 21
0.137804
 31
0.0
  0
LINE
  8
0
 62
     0
 10
344.873
 20
0.137804
 30
0.0
 11
344.482
 21
0.121267
 31
0.0
  0
LINE
  8
0
 62
     0
 10
344.482
 20
0.121267
 30
0.0
 11
5.09598
 21
0.121267
 31
0.0
  0
LINE
  8
0
 62
     0
 10
5.09598
 20
0.121267
 30
0.0
 11
4.70186
 21
0.137804
 31
0.0
  0
LINE
  8
0
 62
     0
 10
4.70186
 20
0.137804
 30
0.0
 11
4.3119
 21
0.183279
 31
0.0
  0
LINE
  8
0
 62
     0
 10
4.3119
 20
0.183279
 30
0.0
 11
3.9274
 21
0.260449
 31
0.0
  0
LINE
  8
0
 62
     0
 10
3.9274
 20
0.260449
 30
0.0
 11
3.54983
 21
0.366557
 31
0.0
  0
LINE
  8
0
 62
     0
 10
3.54983
 20
0.366557
 30
0.0
 11
3.18189
 21
0.501608
 31
0.0
  0
LINE
  8
0
 62
     0
 10
3.18189
 20
0.501608
 30
0.0
 11
2.82498
 21
0.666972
 31
0.0
  0
LINE
  8
0
 62
     0
 10
2.82498
 20
0.666972
 30
0.0
 11
2.48185
 21
0.858516
 31
0.0
  0
LINE
  8
0
 62
     0
 10
2.48185
 20
0.858516
 30
0.0
 11
2.15663
 21
1.07625
 31
0.0
  0
LINE
  8
0
 62
     0
 10
2.15663
 20
1.07625
 30
0.0
 11
1.84795
 21
1.31878
 31
0.0
  0
LINE
  8
0
 62
     0
 10
1.84795
 20
1.31878
 30
0.0
 11
1.55994
 21
1.58612
 31
0.0
  0
LINE
  8
0
 62
     0
 10
1.55994
 20
1.58612
 30
0.0
 11
1.2926
 21
1.87413
 31
0.0
  0
LINE
  8
0
 62
     0
 10
1.2926
 20
1.87413
 30
0.0
 11
1.05006
 21
2.18281
 31
0.0
  0
LINE
  8
0
 62
     0
 10
1.05006
 20
2.18281
 30
0.0
 11
0.830957
 21
2.50941
 31
0.0
  0
LINE
  8
0
 62
     0
 10
0.830957
 20
2.50941
 30
0.0
 11
0.63941
 21
2.85254
 31
0.0
  0
LINE
  8
0
 62
     0
 10
0.63941
 20
2.85254
 30
0.0
 11
0.475424
 21
3.20807
 31
0.0
  0
LINE
  8
0
 62
     0
 10
0.475424
 20
3.20807
 30
0.0
 11
0.338998
 21
3.576
 31
0.0
  0
LINE
  8
0
 62
     0
 10
0.338998
 20
3.576
 30
0.0
 11
0.232888
 21
3.95496
 31
0.0
  0
LINE
  8
0
 62
     0
 10
0.232888
 20
3.95496
 30
0.0
 11
0.157097
 21
4.33945
 31
0.0
  0
LINE
  8
0
 62
     0
 10
0.157097
 20
4.33945
 30
0.0
 11
0.110243
 21
4.72944
 31
0.0
  0
LINE
  8
0
 62
     0
 10
0.110243
 20
4.72944
 30
0.0
 11
0.0950846
 21
5.12216
 31
0.0
  0
LINE
  8
0
 62
     0
 10
0.0950846
 20
5.12216
 30
0.0
 11
0.0950846
 21
106.382
 31
0.0
  0
LINE
  8
0
 62
     0
 10
0.0950846
 20
106.382
 30
0.0
 11
0.110243
 21
106.776
 31
0.0
  0
LINE
  8
0
 62
     0
 10
0.110243
 20
106.776
 30
0.0
 11
0.157097
 21
107.166
 31
0.0
  0
LINE
  8
0
 62
     0
 10
0.157097
 20
107.166
 30
0.0
 11
0.232888
 21
107.55
 31
0.0
  0
LINE
  8
0
 62
     0
 10
0.232888
 20
107.55
 30
0.0
 11
0.338998
 21
107.928
 31
0.0
  0
LINE
  8
0
 62
     0
 10
0.338998
 20
107.928
 30
0.0
 11
0.475424
 21
108.296
 31
0.0
  0
LINE
  8
0
 62
     0
 10
0.475424
 20
108.296
 30
0.0
 11
0.63941
 21
108.653
 31
0.0
  0
LINE
  8
0
 62
     0
 10
0.63941
 20
108.653
 30
0.0
 11
0.830957
 21
108.996
 31
0.0
  0
LINE
  8
0
 62
     0
 10
0.830957
 20
108.996
 30
0.0
 11
1.05006
 21
109.321
 31
0.0
  0
LINE
  8
0
 62
     0
 10
1.05006
 20
109.321
 30
0.0
 11
1.2926
 21
109.63
 31
0.0
  0
LINE
  8
0
 62
     0
 10
1.2926
 20
109.63
 30
0.0
 11
1.55994
 21
109.918
 31
0.0
  0
LINE
  8
0
 62
     0
 10
1.55994
 20
109.918
 30
0.0
 11
1.84795
 21
110.185
 31
0.0
  0
LINE
  8
0
 62
     0
 10
1.84795
 20
110.185
 30
0.0
 11
2.15663
 21
110.428
 31
0.0
  0
LINE
  8
0
 62
     0
 10
2.15663
 20
110.428
 30
0.0
 11
2.48185
 21
110.647
 31
0.0
  0
LINE
  8
0
 62
     0
 10
2.48185
 20
110.647
 30
0.0
 11
2.82498
 21
110.839
 31
0.0
  0
LINE
  8
0
 62
     0
 10
2.82498
 20
110.839
 30
0.0
 11
3.18189
 21
111.002
 31
0.0
  0
LINE
  8
0
 62
     0
 10
3.18189
 20
111.002
 30
0.0
 11
3.54983
 21
111.139
 31
0.0
  0
LINE
  8
0
 62
     0
 10
3.54983
 20
111.139
 30
0.0
 11
3.9274
 21
111.245
 31
0.0
  0
LINE
  8
0
 62
     0
 10
3.9274
 20
111.245
 30
0.0
 11
4.3119
 21
111.321
 31
0.0
  0
LINE
  8
0
 62
     0
 10
4.3119
 20
111.321
 30
0.0
 11
4.70186
 21
111.368
 31
0.0
  0
LINE
  8
0
 62
     0
 10
4.70186
 20
111.368
 30
0.0
 11
5.09598
 21
111.383
 31
0.0
  0
LINE
  8
0
 62
     0
 10
5.09598
 20
111.383
 30
0.0
 11
344.482
 21
111.383
 31
0.0
  0
LINE
  8
0
 62
     0
 10
3.63802
 20
5.54799
 30
0.0
 11
3.22048
 21
5.33576
 31
0.0
  0
LINE
  8
0
 62
     0
 10
3.22048
 20
5.33576
 30
0.0
 11
2.89112
 21
5.00503
 31
0.0
  0
LINE
  8
0
 62
     0
 10
2.89112
 20
5.00503
 30
0.0
 11
2.67891
 21
4.58886
 31
0.0
  0
LINE
  8
0
 62
     0
 10
2.67891
 20
4.58886
 30
0.0
 11
2.60587
 21
4.12722
 31
0.0
  0
LINE
  8
0
 62
     0
 10
2.60587
 20
4.12722
 30
0.0
 11
2.67891
 21
3.66557
 31
0.0
  0
LINE
  8
0
 62
     0
 10
2.67891
 20
3.66557
 30
0.0
 11
2.89112
 21
3.24804
 31
0.0
  0
LINE
  8
0
 62
     0
 10
2.89112
 20
3.24804
 30
0.0
 11
3.22048
 21
2.91731
 31
0.0
  0
LINE
  8
0
 62
     0
 10
3.22048
 20
2.91731
 30
0.0
 11
3.63802
 21
2.70509
 31
0.0
  0
LINE
  8
0
 62
     0
 10
3.63802
 20
2.70509
 30
0.0
 11
4.10104
 21
2.63205
 31
0.0
  0
LINE
  8
0
 62
     0
 10
4.10104
 20
2.63205
 30
0.0
 11
4.56131
 21
2.70509
 31
0.0
  0
LINE
  8
0
 62
     0
 10
4.56131
 20
2.70509
 30
0.0
 11
4.97886
 21
2.91731
 31
0.0
  0
LINE
  8
0
 62
     0
 10
4.97886
 20
2.91731
 30
0.0
 11
5.30959
 21
3.24804
 31
0.0
  0
LINE
  8
0
 62
     0
 10
5.30959
 20
3.24804
 30
0.0
 11
5.52178
 21
3.66557
 31
0.0
  0
LINE
  8
0
 62
     0
 10
5.52178
 20
3.66557
 30
0.0
 11
5.59484
 21
4.12722
 31
0.0
  0
LINE
  8
0
 62
     0
 10
5.59484
 20
4.12722
 30
0.0
 11
5.52178
 21
4.58886
 31
0.0
  0
LINE
  8
0
 62
     0
 10
5.52178
 20
4.58886
 30
0.0
 11
5.30959
 21
5.00503
 31
0.0
  0
LINE
  8
0
 62
     0
 10
5.30959
 20
5.00503
 30
0.0
 11
4.97886
 21
5.33576
 31
0.0
  0
LINE
  8
0
 62
     0
 10
4.97886
 20
5.33576
 30
0.0
 11
4.56131
 21
5.54799
 31
0.0
  0
LINE
  8
0
 62
     0
 10
4.56131
 20
5.54799
 30
0.0
 11
4.10104
 21
5.62102
 31
0.0
  0
LINE
  8
0
 62
     0
 10
4.10104
 20
5.62102
 30
0.0
 11
3.63802
 21
5.54799
 31
0.0
  0
LINE
  8
0
 62
     0
 10
88.9825
 20
5.54799
 30
0.0
 11
88.5652
 21
5.33576
 31
0.0
  0
LINE
  8
0
 62
     0
 10
88.5652
 20
5.33576
 30
0.0
 11
88.2343
 21
5.00503
 31
0.0
  0
LINE
  8
0
 62
     0
 10
88.2343
 20
5.00503
 30
0.0
 11
88.0223
 21
4.58886
 31
0.0
  0
LINE
  8
0
 62
     0
 10
88.0223
 20
4.58886
 30
0.0
 11
87.9493
 21
4.12722
 31
0.0
  0
LINE
  8
0
 62
     0
 10
87.9493
 20
4.12722
 30
0.0
 11
88.0223
 21
3.66557
 31
0.0
  0
LINE
  8
0
 62
     0
 10
88.0223
 20
3.66557
 30
0.0
 11
88.2343
 21
3.24804
 31
0.0
  0
LINE
  8
0
 62
     0
 10
88.2343
 20
3.24804
 30
0.0
 11
88.5652
 21
2.91731
 31
0.0
  0
LINE
  8
0
 62
     0
 10
88.5652
 20
2.91731
 30
0.0
 11
88.9825
 21
2.70509
 31
0.0
  0
LINE
  8
0
 62
     0
 10
88.9825
 20
2.70509
 30
0.0
 11
89.4443
 21
2.63205
 31
0.0
  0
LINE
  8
0
 62
     0
 10
89.4443
 20
2.63205
 30
0.0
 11
89.9061
 21
2.70509
 31
0.0
  0
LINE
  8
0
 62
     0
 10
89.9061
 20
2.70509
 30
0.0
 11
90.322
 21
2.91731
 31
0.0
  0
LINE
  8
0
 62
     0
 10
90.322
 20
2.91731
 30
0.0
 11
90.653
 21
3.24804
 31
0.0
  0
LINE
  8
0
 62
     0
 10
90.653
 20
3.24804
 30
0.0
 11
90.865
 21
3.66557
 31
0.0
  0
LINE
  8
0
 62
     0
 10
90.865
 20
3.66557
 30
0.0
 11
90.9394
 21
4.12722
 31
0.0
  0
LINE
  8
0
 62
     0
 10
90.9394
 20
4.12722
 30
0.0
 11
90.865
 21
4.58886
 31
0.0
  0
LINE
  8
0
 62
     0
 10
90.865
 20
4.58886
 30
0.0
 11
90.653
 21
5.00503
 31
0.0
  0
LINE
  8
0
 62
     0
 10
90.653
 20
5.00503
 30
0.0
 11
90.322
 21
5.33576
 31
0.0
  0
LINE
  8
0
 62
     0
 10
90.322
 20
5.33576
 30
0.0
 11
89.9061
 21
5.54799
 31
0.0
  0
LINE
  8
0
 62
     0
 10
89.9061
 20
5.54799
 30
0.0
 11
89.4443
 21
5.62102
 31
0.0
  0
LINE
  8
0
 62
     0
 10
89.4443
 20
5.62102
 30
0.0
 11
88.9825
 21
5.54799
 31
0.0
  0
LINE
  8
0
 62
     0
 10
174.326
 20
5.54799
 30
0.0
 11
173.91
 21
5.33576
 31
0.0
  0
LINE
  8
0
 62
     0
 10
173.91
 20
5.33576
 30
0.0
 11
173.579
 21
5.00503
 31
0.0
  0
LINE
  8
0
 62
     0
 10
173.579
 20
5.00503
 30
0.0
 11
173.367
 21
4.58886
 31
0.0
  0
LINE
  8
0
 62
     0
 10
173.367
 20
4.58886
 30
0.0
 11
173.294
 21
4.12722
 31
0.0
  0
LINE
  8
0
 62
     0
 10
173.294
 20
4.12722
 30
0.0
 11
173.367
 21
3.66557
 31
0.0
  0
LINE
  8
0
 62
     0
 10
173.367
 20
3.66557
 30
0.0
 11
173.579
 21
3.24804
 31
0.0
  0
LINE
  8
0
 62
     0
 10
173.579
 20
3.24804
 30
0.0
 11
173.91
 21
2.91731
 31
0.0
  0
LINE
  8
0
 62
     0
 10
173.91
 20
2.91731
 30
0.0
 11
174.326
 21
2.70509
 31
0.0
  0
LINE
  8
0
 62
     0
 10
174.326
 20
2.70509
 30
0.0
 11
174.789
 21
2.63205
 31
0.0
  0
LINE
  8
0
 62
     0
 10
174.789
 20
2.63205
 30
0.0
 11
175.249
 21
2.70509
 31
0.0
  0
LINE
  8
0
 62
     0
 10
175.249
 20
2.70509
 30
0.0
 11
175.667
 21
2.91731
 31
0.0
  0
LINE
  8
0
 62
     0
 10
175.667
 20
2.91731
 30
0.0
 11
175.998
 21
3.24804
 31
0.0
  0
LINE
  8
0
 62
     0
 10
175.998
 20
3.24804
 30
0.0
 11
176.21
 21
3.66557
 31
0.0
  0
LINE
  8
0
 62
     0
 10
176.21
 20
3.66557
 30
0.0
 11
176.284
 21
4.12722
 31
0.0
  0
LINE
  8
0
 62
     0
 10
176.284
 20
4.12722
 30
0.0
 11
176.21
 21
4.58886
 31
0.0
  0
LINE
  8
0
 62
     0
 10
176.21
 20
4.58886
 30
0.0
 11
175.998
 21
5.00503
 31
0.0
  0
LINE
  8
0
 62
     0
 10
175.998
 20
5.00503
 30
0.0
 11
175.667
 21
5.33576
 31
0.0
  0
LINE
  8
0
 62
     0
 10
175.667
 20
5.33576
 30
0.0
 11
175.249
 21
5.54799
 31
0.0
  0
LINE
  8
0
 62
     0
 10
175.249
 20
5.54799
 30
0.0
 11
174.789
 21
5.62102
 31
0.0
  0
LINE
  8
0
 62
     0
 10
174.789
 20
5.62102
 30
0.0
 11
174.326
 21
5.54799
 31
0.0
  0
LINE
  8
0
 62
     0
 10
259.671
 20
5.54799
 30
0.0
 11
259.253
 21
5.33576
 31
0.0
  0
LINE
  8
0
 62
     0
 10
259.253
 20
5.33576
 30
0.0
 11
258.922
 21
5.00503
 31
0.0
  0
LINE
  8
0
 62
     0
 10
258.922
 20
5.00503
 30
0.0
 11
258.71
 21
4.58886
 31
0.0
  0
LINE
  8
0
 62
     0
 10
258.71
 20
4.58886
 30
0.0
 11
258.637
 21
4.12722
 31
0.0
  0
LINE
  8
0
 62
     0
 10
258.637
 20
4.12722
 30
0.0
 11
258.71
 21
3.66557
 31
0.0
  0
LINE
  8
0
 62
     0
 10
258.71
 20
3.66557
 30
0.0
 11
258.922
 21
3.24804
 31
0.0
  0
LINE
  8
0
 62
     0
 10
258.922
 20
3.24804
 30
0.0
 11
259.253
 21
2.91731
 31
0.0
  0
LINE
  8
0
 62
     0
 10
259.253
 20
2.91731
 30
0.0
 11
259.671
 21
2.70509
 31
0.0
  0
LINE
  8
0
 62
     0
 10
259.671
 20
2.70509
 30
0.0
 11
260.132
 21
2.63205
 31
0.0
  0
LINE
  8
0
 62
     0
 10
260.132
 20
2.63205
 30
0.0
 11
260.594
 21
2.70509
 31
0.0
  0
LINE
  8
0
 62
     0
 10
260.594
 20
2.70509
 30
0.0
 11
261.01
 21
2.91731
 31
0.0
  0
LINE
  8
0
 62
     0
 10
261.01
 20
2.91731
 30
0.0
 11
261.341
 21
3.24804
 31
0.0
  0
LINE
  8
0
 62
     0
 10
261.341
 20
3.24804
 30
0.0
 11
261.553
 21
3.66557
 31
0.0
  0
LINE
  8
0
 62
     0
 10
261.553
 20
3.66557
 30
0.0
 11
261.627
 21
4.12722
 31
0.0
  0
LINE
  8
0
 62
     0
 10
261.627
 20
4.12722
 30
0.0
 11
261.553
 21
4.58886
 31
0.0
  0
LINE
  8
0
 62
     0
 10
261.553
 20
4.58886
 30
0.0
 11
261.341
 21
5.00503
 31
0.0
  0
LINE
  8
0
 62
     0
 10
261.341
 20
5.00503
 30
0.0
 11
261.01
 21
5.33576
 31
0.0
  0
LINE
  8
0
 62
     0
 10
261.01
 20
5.33576
 30
0.0
 11
260.594
 21
5.54799
 31
0.0
  0
LINE
  8
0
 62
     0
 10
260.594
 20
5.54799
 30
0.0
 11
260.132
 21
5.62102
 31
0.0
  0
LINE
  8
0
 62
     0
 10
260.132
 20
5.62102
 30
0.0
 11
259.671
 21
5.54799
 31
0.0
  0
LINE
  8
0
 62
     0
 10
345.014
 20
5.54799
 30
0.0
 11
344.598
 21
5.33576
 31
0.0
  0
LINE
  8
0
 62
     0
 10
344.598
 20
5.33576
 30
0.0
 11
344.267
 21
5.00503
 31
0.0
  0
LINE
  8
0
 62
     0
 10
344.267
 20
5.00503
 30
0.0
 11
344.055
 21
4.58886
 31
0.0
  0
LINE
  8
0
 62
     0
 10
344.055
 20
4.58886
 30
0.0
 11
343.982
 21
4.12722
 31
0.0
  0
LINE
  8
0
 62
     0
 10
343.982
 20
4.12722
 30
0.0
 11
344.055
 21
3.66557
 31
0.0
  0
LINE
  8
0
 62
     0
 10
344.055
 20
3.66557
 30
0.0
 11
344.267
 21
3.24804
 31
0.0
  0
LINE
  8
0
 62
     0
 10
344.267
 20
3.24804
 30
0.0
 11
344.598
 21
2.91731
 31
0.0
  0
LINE
  8
0
 62
     0
 10
344.598
 20
2.91731
 30
0.0
 11
345.014
 21
2.70509
 31
0.0
  0
LINE
  8
0
 62
     0
 10
345.014
 20
2.70509
 30
0.0
 11
345.477
 21
2.63205
 31
0.0
  0
LINE
  8
0
 62
     0
 10
345.477
 20
2.63205
 30
0.0
 11
345.937
 21
2.70509
 31
0.0
  0
LINE
  8
0
 62
     0
 10
345.937
 20
2.70509
 30
0.0
 11
346.355
 21
2.91731
 31
0.0
  0
LINE
  8
0
 62
     0
 10
346.355
 20
2.91731
 30
0.0
 11
346.685
 21
3.24804
 31
0.0
  0
LINE
  8
0
 62
     0
 10
346.685
 20
3.24804
 30
0.0
 11
346.898
 21
3.66557
 31
0.0
  0
LINE
  8
0
 62
     0
 10
346.898
 20
3.66557
 30
0.0
 11
346.972
 21
4.12722
 31
0.0
  0
LINE
  8
0
 62
     0
 10
346.972
 20
4.12722
 30
0.0
 11
346.898
 21
4.58886
 31
0.0
  0
LINE
  8
0
 62
     0
 10
346.898
 20
4.58886
 30
0.0
 11
346.685
 21
5.00503
 31
0.0
  0
LINE
  8
0
 62
     0
 10
346.685
 20
5.00503
 30
0.0
 11
346.355
 21
5.33576
 31
0.0
  0
LINE
  8
0
 62
     0
 10
346.355
 20
5.33576
 30
0.0
 11
345.937
 21
5.54799
 31
0.0
  0
LINE
  8
0
 62
     0
 10
345.937
 20
5.54799
 30
0.0
 11
345.477
 21
5.62102
 31
0.0
  0
LINE
  8
0
 62
     0
 10
345.477
 20
5.62102
 30
0.0
 11
345.014
 21
5.54799
 31
0.0
  0
LINE
  8
0
 62
     0
 10
345.014
 20
108.799
 30
0.0
 11
344.598
 21
108.587
 31
0.0
  0
LINE
  8
0
 62
     0
 10
344.598
 20
108.587
 30
0.0
 11
344.267
 21
108.257
 31
0.0
  0
LINE
  8
0
 62
     0
 10
344.267
 20
108.257
 30
0.0
 11
344.055
 21
107.84
 31
0.0
  0
LINE
  8
0
 62
     0
 10
344.055
 20
107.84
 30
0.0
 11
343.982
 21
107.378
 31
0.0
  0
LINE
  8
0
 62
     0
 10
343.982
 20
107.378
 30
0.0
 11
344.055
 21
106.916
 31
0.0
  0
LINE
  8
0
 62
     0
 10
344.055
 20
106.916
 30
0.0
 11
344.267
 21
106.499
 31
0.0
  0
LINE
  8
0
 62
     0
 10
344.267
 20
106.499
 30
0.0
 11
344.598
 21
106.168
 31
0.0
  0
LINE
  8
0
 62
     0
 10
344.598
 20
106.168
 30
0.0
 11
345.014
 21
105.956
 31
0.0
  0
LINE
  8
0
 62
     0
 10
345.014
 20
105.956
 30
0.0
 11
345.477
 21
105.883
 31
0.0
  0
LINE
  8
0
 62
     0
 10
345.477
 20
105.883
 30
0.0
 11
345.937
 21
105.956
 31
0.0
  0
LINE
  8
0
 62
     0
 10
345.937
 20
105.956
 30
0.0
 11
346.355
 21
106.168
 31
0.0
  0
LINE
  8
0
 62
     0
 10
346.355
 20
106.168
 30
0.0
 11
346.685
 21
106.499
 31
0.0
  0
LINE
  8
0
 62
     0
 10
346.685
 20
106.499
 30
0.0
 11
346.898
 21
106.916
 31
0.0
  0
LINE
  8
0
 62
     0
 10
346.898
 20
106.916
 30
0.0
 11
346.972
 21
107.377
 31
0.0
  0
LINE
  8
0
 62
     0
 10
346.972
 20
107.377
 30
0.0
 11
346.898
 21
107.84
 31
0.0
  0
LINE
  8
0
 62
     0
 10
346.898
 20
107.84
 30
0.0
 11
346.685
 21
108.257
 31
0.0
  0
LINE
  8
0
 62
     0
 10
346.685
 20
108.257
 30
0.0
 11
346.355
 21
108.587
 31
0.0
  0
LINE
  8
0
 62
     0
 10
346.355
 20
108.587
 30
0.0
 11
345.937
 21
108.799
 31
0.0
  0
LINE
  8
0
 62
     0
 10
345.937
 20
108.799
 30
0.0
 11
345.477
 21
108.872
 31
0.0
  0
LINE
  8
0
 62
     0
 10
345.477
 20
108.872
 30
0.0
 11
345.014
 21
108.799
 31
0.0
  0
LINE
  8
0
 62
     0
 10
259.671
 20
108.799
 30
0.0
 11
259.253
 21
108.587
 31
0.0
  0
LINE
  8
0
 62
     0
 10
259.253
 20
108.587
 30
0.0
 11
258.922
 21
108.257
 31
0.0
  0
LINE
  8
0
 62
     0
 10
258.922
 20
108.257
 30
0.0
 11
258.71
 21
107.84
 31
0.0
  0
LINE
  8
0
 62
     0
 10
258.71
 20
107.84
 30
0.0
 11
258.637
 21
107.378
 31
0.0
  0
LINE
  8
0
 62
     0
 10
258.637
 20
107.378
 30
0.0
 11
258.71
 21
106.916
 31
0.0
  0
LINE
  8
0
 62
     0
 10
258.71
 20
106.916
 30
0.0
 11
258.922
 21
106.499
 31
0.0
  0
LINE
  8
0
 62
     0
 10
258.922
 20
106.499
 30
0.0
 11
259.253
 21
106.168
 31
0.0
  0
LINE
  8
0
 62
     0
 10
259.253
 20
106.168
 30
0.0
 11
259.671
 21
105.956
 31
0.0
  0
LINE
  8
0
 62
     0
 10
259.671
 20
105.956
 30
0.0
 11
260.132
 21
105.883
 31
0.0
  0
LINE
  8
0
 62
     0
 10
260.132
 20
105.883
 30
0.0
 11
260.594
 21
105.956
 31
0.0
  0
LINE
  8
0
 62
     0
 10
260.594
 20
105.956
 30
0.0
 11
261.01
 21
106.168
 31
0.0
  0
LINE
  8
0
 62
     0
 10
261.01
 20
106.168
 30
0.0
 11
261.341
 21
106.499
 31
0.0
  0
LINE
  8
0
 62
     0
 10
261.341
 20
106.499
 30
0.0
 11
261.553
 21
106.916
 31
0.0
  0
LINE
  8
0
 62
     0
 10
261.553
 20
106.916
 30
0.0
 11
261.627
 21
107.377
 31
0.0
  0
LINE
  8
0
 62
     0
 10
261.627
 20
107.377
 30
0.0
 11
261.553
 21
107.84
 31
0.0
  0
LINE
  8
0
 62
     0
 10
261.553
 20
107.84
 30
0.0
 11
261.341
 21
108.257
 31
0.0
  0
LINE
  8
0
 62
     0
 10
261.341
 20
108.257
 30
0.0
 11
261.01
 21
108.587
 31
0.0
  0
LINE
  8
0
 62
     0
 10
261.01
 20
108.587
 30
0.0
 11
260.594
 21
108.799
 31
0.0
  0
LINE
  8
0
 62
     0
 10
260.594
 20
108.799
 30
0.0
 11
260.132
 21
108.872
 31
0.0
  0
LINE
  8
0
 62
     0
 10
260.132
 20
108.872
 30
0.0
 11
259.671
 21
108.799
 31
0.0
  0
LINE
  8
0
 62
     0
 10
174.326
 20
108.799
 30
0.0
 11
173.91
 21
108.587
 31
0.0
  0
LINE
  8
0
 62
     0
 10
173.91
 20
108.587
 30
0.0
 11
173.579
 21
108.257
 31
0.0
  0
LINE
  8
0
 62
     0
 10
173.579
 20
108.257
 30
0.0
 11
173.367
 21
107.84
 31
0.0
  0
LINE
  8
0
 62
     0
 10
173.367
 20
107.84
 30
0.0
 11
173.293
 21
107.378
 31
0.0
  0
LINE
  8
0
 62
     0
 10
173.293
 20
107.378
 30
0.0
 11
173.367
 21
106.916
 31
0.0
  0
LINE
  8
0
 62
     0
 10
173.367
 20
106.916
 30
0.0
 11
173.579
 21
106.499
 31
0.0
  0
LINE
  8
0
 62
     0
 10
173.579
 20
106.499
 30
0.0
 11
173.91
 21
106.168
 31
0.0
  0
LINE
  8
0
 62
     0
 10
173.91
 20
106.168
 30
0.0
 11
174.326
 21
105.956
 31
0.0
  0
LINE
  8
0
 62
     0
 10
174.326
 20
105.956
 30
0.0
 11
174.789
 21
105.883
 31
0.0
  0
LINE
  8
0
 62
     0
 10
174.789
 20
105.883
 30
0.0
 11
175.249
 21
105.956
 31
0.0
  0
LINE
  8
0
 62
     0
 10
175.249
 20
105.956
 30
0.0
 11
175.667
 21
106.168
 31
0.0
  0
LINE
  8
0
 62
     0
 10
175.667
 20
106.168
 30
0.0
 11
175.998
 21
106.499
 31
0.0
  0
LINE
  8
0
 62
     0
 10
175.998
 20
106.499
 30
0.0
 11
176.21
 21
106.916
 31
0.0
  0
LINE
  8
0
 62
     0
 10
176.21
 20
106.916
 30
0.0
 11
176.284
 21
107.377
 31
0.0
  0
LINE
  8
0
 62
     0
 10
176.284
 20
107.377
 30
0.0
 11
176.21
 21
107.84
 31
0.0
  0
LINE
  8
0
 62
     0
 10
176.21
 20
107.84
 30
0.0
 11
175.998
 21
108.257
 31
0.0
  0
LINE
  8
0
 62
     0
 10
175.998
 20
108.257
 30
0.0
 11
175.667
 21
108.587
 31
0.0
  0
LINE
  8
0
 62
     0
 10
175.667
 20
108.587
 30
0.0
 11
175.249
 21
108.799
 31
0.0
  0
LINE
  8
0
 62
     0
 10
175.249
 20
108.799
 30
0.0
 11
174.789
 21
108.872
 31
0.0
  0
LINE
  8
0
 62
     0
 10
174.789
 20
108.872
 30
0.0
 11
174.326
 21
108.799
 31
0.0
  0
LINE
  8
0
 62
     0
 10
88.9825
 20
108.799
 30
0.0
 11
88.5652
 21
108.587
 31
0.0
  0
LINE
  8
0
 62
     0
 10
88.5652
 20
108.587
 30
0.0
 11
88.2343
 21
108.257
 31
0.0
  0
LINE
  8
0
 62
     0
 10
88.2343
 20
108.257
 30
0.0
 11
88.0223
 21
107.84
 31
0.0
  0
LINE
  8
0
 62
     0
 10
88.0223
 20
107.84
 30
0.0
 11
87.9493
 21
107.378
 31
0.0
  0
LINE
  8
0
 62
     0
 10
87.9493
 20
107.378
 30
0.0
 11
88.0223
 21
106.916
 31
0.0
  0
LINE
  8
0
 62
     0
 10
88.0223
 20
106.916
 30
0.0
 11
88.2343
 21
106.499
 31
0.0
  0
LINE
  8
0
 62
     0
 10
88.2343
 20
106.499
 30
0.0
 11
88.5652
 21
106.168
 31
0.0
  0
LINE
  8
0
 62
     0
 10
88.5652
 20
106.168
 30
0.0
 11
88.9825
 21
105.956
 31
0.0
  0
LINE
  8
0
 62
     0
 10
88.9825
 20
105.956
 30
0.0
 11
89.4443
 21
105.883
 31
0.0
  0
LINE
  8
0
 62
     0
 10
89.4443
 20
105.883
 30
0.0
 11
89.9061
 21
105.956
 31
0.0
  0
LINE
  8
0
 62
     0
 10
89.9061
 20
105.956
 30
0.0
 11
90.322
 21
106.168
 31
0.0
  0
LINE
  8
0
 62
     0
 10
90.322
 20
106.168
 30
0.0
 11
90.653
 21
106.499
 31
0.0
  0
LINE
  8
0
 62
     0
 10
90.653
 20
106.499
 30
0.0
 11
90.865
 21
106.916
 31
0.0
  0
LINE
  8
0
 62
     0
 10
90.865
 20
106.916
 30
0.0
 11
90.9394
 21
107.377
 31
0.0
  0
LINE
  8
0
 62
     0
 10
90.9394
 20
107.377
 30
0.0
 11
90.865
 21
107.84
 31
0.0
  0
LINE
  8
0
 62
     0
 10
90.865
 20
107.84
 30
0.0
 11
90.653
 21
108.257
 31
0.0
  0
LINE
  8
0
 62
     0
 10
90.653
 20
108.257
 30
0.0
 11
90.322
 21
108.587
 31
0.0
  0
LINE
  8
0
 62
     0
 10
90.322
 20
108.587
 30
0.0
 11
89.9061
 21
108.799
 31
0.0
  0
LINE
  8
0
 62
     0
 10
89.9061
 20
108.799
 30
0.0
 11
89.4443
 21
108.872
 31
0.0
  0
LINE
  8
0
 62
     0
 10
89.4443
 20
108.872
 30
0.0
 11
88.9825
 21
108.799
 31
0.0
  0
LINE
  8
0
 62
     0
 10
3.63802
 20
108.799
 30
0.0
 11
3.22048
 21
108.587
 31
0.0
  0
LINE
  8
0
 62
     0
 10
3.22048
 20
108.587
 30
0.0
 11
2.89112
 21
108.257
 31
0.0
  0
LINE
  8
0
 62
     0
 10
2.89112
 20
108.257
 30
0.0
 11
2.67891
 21
107.84
 31
0.0
  0
LINE
  8
0
 62
     0
 10
2.67891
 20
107.84
 30
0.0
 11
2.60587
 21
107.378
 31
0.0
  0
LINE
  8
0
 62
     0
 10
2.60587
 20
107.378
 30
0.0
 11
2.67891
 21
106.916
 31
0.0
  0
LINE
  8
0
 62
     0
 10
2.67891
 20
106.916
 30
0.0
 11
2.89112
 21
106.499
 31
0.0
  0
LINE
  8
0
 62
     0
 10
2.89112
 20
106.499
 30
0.0
 11
3.22048
 21
106.168
 31
0.0
  0
LINE
  8
0
 62
     0
 10
3.22048
 20
106.168
 30
0.0
 11
3.63802
 21
105.956
 31
0.0
  0
LINE
  8
0
 62
     0
 10
3.63802
 20
105.956
 30
0.0
 11
4.10104
 21
105.883
 31
0.0
  0
LINE
  8
0
 62
     0
 10
4.10104
 20
105.883
 30
0.0
 11
4.56131
 21
105.956
 31
0.0
  0
LINE
  8
0
 62
     0
 10
4.56131
 20
105.956
 30
0.0
 11
4.97886
 21
106.168
 31
0.0
  0
LINE
  8
0
 62
     0
 10
4.97886
 20
106.168
 30
0.0
 11
5.30959
 21
106.499
 31
0.0
  0
LINE
  8
0
 62
     0
 10
5.30959
 20
106.499
 30
0.0
 11
5.52178
 21
106.916
 31
0.0
  0
LINE
  8
0
 62
     0
 10
5.52178
 20
106.916
 30
0.0
 11
5.59484
 21
107.378
 31
0.0
  0
LINE
  8
0
 62
     0
 10
5.59484
 20
107.378
 30
0.0
 11
5.52178
 21
107.84
 31
0.0
  0
LINE
  8
0
 62
     0
 10
5.52178
 20
107.84
 30
0.0
 11
5.30959
 21
108.257
 31
0.0
  0
LINE
  8
0
 62
     0
 10
5.30959
 20
108.257
 30
0.0
 11
4.97886
 21
108.587
 31
0.0
  0
LINE
  8
0
 62
     0
 10
4.97886
 20
108.587
 30
0.0
 11
4.56131
 21
108.799
 31
0.0
  0
LINE
  8
0
 62
     0
 10
4.56131
 20
108.799
 30
0.0
 11
4.10104
 21
108.873
 31
0.0
  0
LINE
  8
0
 62
     0
 10
4.10104
 20
108.873
 30
0.0
 11
3.63802
 21
108.799
 31
0.0
  0
ENDSEC
  0
EOF
